<mxfile host="Electron" modified="2023-04-28T18:08:34.245Z" agent="Mozilla/5.0 (Windows NT 10.0; Win64; x64) AppleWebKit/537.36 (KHTML, like Gecko) draw.io/21.2.1 Chrome/112.0.5615.87 Electron/24.1.2 Safari/537.36" etag="IY891c0nyOcsw6lF9RSe" version="21.2.1" type="device">
  <diagram name="Page-1" id="33VfIhm8I_YYfF1pPIE8">
    <mxGraphModel dx="757" dy="814" grid="1" gridSize="10" guides="1" tooltips="1" connect="1" arrows="1" fold="1" page="1" pageScale="1" pageWidth="500" pageHeight="100" math="1" shadow="0">
      <root>
        <mxCell id="0" />
        <mxCell id="1" parent="0" />
        <mxCell id="gn8eFaFEJSFQ9ATGo4QE-5" style="edgeStyle=orthogonalEdgeStyle;rounded=0;orthogonalLoop=1;jettySize=auto;html=1;" edge="1" parent="1" source="gn8eFaFEJSFQ9ATGo4QE-1" target="gn8eFaFEJSFQ9ATGo4QE-3">
          <mxGeometry relative="1" as="geometry" />
        </mxCell>
        <mxCell id="gn8eFaFEJSFQ9ATGo4QE-1" value="Input layer&lt;br&gt;shape [4]" style="rounded=1;whiteSpace=wrap;html=1;fillColor=#dae8fc;strokeColor=#6c8ebf;" vertex="1" parent="1">
          <mxGeometry x="30" y="20" width="120" height="60" as="geometry" />
        </mxCell>
        <mxCell id="gn8eFaFEJSFQ9ATGo4QE-6" style="edgeStyle=orthogonalEdgeStyle;rounded=0;orthogonalLoop=1;jettySize=auto;html=1;" edge="1" parent="1" source="gn8eFaFEJSFQ9ATGo4QE-3" target="gn8eFaFEJSFQ9ATGo4QE-4">
          <mxGeometry relative="1" as="geometry" />
        </mxCell>
        <mxCell id="gn8eFaFEJSFQ9ATGo4QE-3" value="Dense layer&lt;br&gt;6 units, ReLU" style="rounded=1;whiteSpace=wrap;html=1;fillColor=#f8cecc;strokeColor=#b85450;" vertex="1" parent="1">
          <mxGeometry x="190" y="20" width="120" height="60" as="geometry" />
        </mxCell>
        <mxCell id="gn8eFaFEJSFQ9ATGo4QE-4" value="Dense layer&lt;br&gt;4 units, softmax" style="rounded=1;whiteSpace=wrap;html=1;fillColor=#d5e8d4;strokeColor=#82b366;" vertex="1" parent="1">
          <mxGeometry x="350" y="20" width="120" height="60" as="geometry" />
        </mxCell>
      </root>
    </mxGraphModel>
  </diagram>
</mxfile>
